<?xml version="1.0" encoding="utf-8"?>
<!-- Generator: Adobe Illustrator 25.4.1, SVG Export Plug-In . SVG Version: 6.00 Build 0)  -->
<svg version="1.1" id="Layer_1" xmlns="http://www.w3.org/2000/svg" xmlns:xlink="http://www.w3.org/1999/xlink" x="0px" y="0px"
	 viewBox="0 0 595.3 841.9" style="enable-background:new 0 0 595.3 841.9;" xml:space="preserve">
<style type="text/css">
	.st0{fill:#C1D264;}
	.st1{fill:#FFFFFF;}
</style>
<g>
	<g>
		<path class="st0" d="M403.2,340.4c-3.4-3.4-8.7-5.5-36.6,4.9c-10.2,3.8-23.4,9.4-34.2,15.3c-1.5-3.8-2.8-6.9-3.6-8.8
			c-15.3-35.6-21.5-35.6-25.2-35.6s-9.9,0-25.2,35.6c-0.8,1.9-2.1,5.1-3.6,8.8c-10.8-5.9-24-11.5-34.2-15.3
			c-27.9-10.4-33.2-8.3-36.6-4.9c-2.6,2.6-7,7,7.4,43c3.1,7.8,14,33.9,23.4,43.4c7.6,7.6,17.7,11.4,27.8,11.4
			c7.1,0,14.2-1.9,20.5-5.7c6,3.7,13,5.8,20.5,5.8c7.5,0,14.5-2.1,20.5-5.8c6.3,3.8,13.4,5.7,20.5,5.7c10.1,0,20.2-3.8,27.8-11.4
			c9.4-9.4,20.3-35.6,23.4-43.4C410.2,347.4,405.8,343,403.2,340.4z M245.4,416.2c-9-9-24.8-47.3-28.4-62.9
			c11.7,2.8,36.9,12.5,52.7,21.4c-2.9,8.7-5.3,17.9-5.3,24.2c0,8.4,2.7,16.2,7.2,22.6C262.7,425,252.3,423.2,245.4,416.2z
			 M279.2,399c0-12.7,16-51.1,24.4-64.6C312,347.9,328,386.2,328,399c0,13.4-10.9,24.4-24.4,24.4S279.2,412.4,279.2,399z
			 M361.8,416.2c-7,7-17.4,8.8-26.2,5.4c4.5-6.4,7.2-14.2,7.2-22.6c0-6.3-2.4-15.5-5.3-24.2c15.8-8.9,41-18.6,52.7-21.4
			C386.6,368.8,370.8,407.2,361.8,416.2z"/>
		
			<ellipse transform="matrix(0.9991 -4.285531e-02 4.285531e-02 0.9991 -12.0244 13.2745)" class="st0" cx="303.6" cy="287.1" rx="11.9" ry="11.9"/>
		<circle class="st0" cx="356.9" cy="321.6" r="11.9"/>
		<circle class="st0" cx="250.3" cy="321.6" r="11.9"/>
	</g>
</g>
<g>
	<path class="st1" d="M140.9,456.8v43h-10.1v-33.1l-12.6,33.1h-7.3l-12.6-33.1v33.1H88.2v-43h15.6l10.8,28.3l10.8-28.3H140.9z"/>
	<path class="st1" d="M175.7,480.4v19.4h-10v-3.4c-2.1,2.6-5,4.1-8.7,4.1c-6.4,0-11.1-4.5-11.1-10.3c0-5.8,4.7-10.2,11.2-10.2
		c3.4,0,6.3,0.9,8.5,3.4v-2.5c0-3.3-1.8-5.7-6.5-5.7c-1.4,0-4.8,0.2-9.8,3.1v-8.7c5.8-1.7,10.6-1.7,12.4-1.7
		C170.2,467.9,175.7,472.4,175.7,480.4z M165.8,491.5v-2.7c-1.8-2.2-3.5-2.9-5.3-2.9c-2.7,0-4.7,1.9-4.7,4.3c0,2.3,2,4.1,4.7,4.1
		C162.2,494.4,163.9,493.7,165.8,491.5z"/>
	<path class="st1" d="M180.6,498v-8.8c3.8,2.1,8.4,4.4,12.3,4.4c2.5,0,3.9-0.9,3.9-2.5c0-5.2-16.2-2.6-16.2-13.5
		c0-6.1,5.3-9.7,13.4-9.7c3.1,0,7.8,0.5,10.9,1.5l-0.1,7.9c-3.4-1.7-7.8-3.1-10.8-3.1c-2.5,0-3.7,0.9-3.7,2.5
		c0,4.8,16.2,1.8,16.2,13.3c0,5.8-4.1,10.4-12.4,10.4C191.1,500.4,185.4,499.8,180.6,498z"/>
	<path class="st1" d="M239.4,480.4v19.4h-10v-3.4c-2.1,2.6-5,4.1-8.7,4.1c-6.4,0-11.1-4.5-11.1-10.3c0-5.8,4.7-10.2,11.2-10.2
		c3.4,0,6.3,0.9,8.5,3.4v-2.5c0-3.3-1.8-5.7-6.5-5.7c-1.4,0-4.8,0.2-9.8,3.1v-8.7c5.8-1.7,10.6-1.7,12.4-1.7
		C233.9,467.9,239.4,472.4,239.4,480.4z M229.4,491.5v-2.7c-1.8-2.2-3.5-2.9-5.3-2.9c-2.7,0-4.7,1.9-4.7,4.3c0,2.3,2,4.1,4.7,4.1
		C225.9,494.4,227.6,493.7,229.4,491.5z"/>
	<path class="st1" d="M255.9,498.5c0,6.9-5.5,12.4-13.4,12.4c-1.4,0-3.3-0.1-5.3-0.5v-6.9c1.6,0.6,2.4,0.7,3.4,0.7
		c3.4,0,5.3-1.8,5.3-5v-30.7h10V498.5z M245.1,458.6c0-3.3,2.5-5.7,5.8-5.7c3.3,0,5.8,2.5,5.8,5.7s-2.5,5.7-5.8,5.7
		C247.6,464.3,245.1,461.8,245.1,458.6z"/>
	<path class="st1" d="M311.4,488.3c0,6.8-6,11.6-14.1,11.6h-21.1v-43h20.5c8.1,0,13.6,4.4,13.6,10.7c0,4.7-3.2,8.9-8.5,10.1
		C307.8,478.6,311.4,483,311.4,488.3z M286.2,464.9v9.2h8.2c3.7,0,6-2.2,6-4.7c0-2.6-2.2-4.5-5.8-4.5H286.2z M301.2,486.6
		c0-2.6-2.1-5.3-6.5-5.3h-8.5v10.4h8.8C298.9,491.7,301.2,489.3,301.2,486.6z"/>
	<path class="st1" d="M348.2,468.5l-16.4,41.6h-12l7-12.5l-12.9-29.1h10.9l6.7,19.7l5.8-19.7H348.2z"/>
	<path class="st1" d="M400.8,470.8c0,7.8-6.6,13.8-16,13.8h-9.3v15.2h-10.2v-43h19.5C394.3,456.8,400.8,463,400.8,470.8z
		 M391.1,470.9c0-3.1-2.8-5.8-6.9-5.8h-8.6v11.8h8.6C388.4,476.8,391.1,474.1,391.1,470.9z"/>
	<path class="st1" d="M434,486.7h-21.5c0.9,4.7,3.8,6.5,9.3,6.5c2.4,0,5-0.5,10.3-2.4v7.9c-5.2,1.5-9.2,1.7-11.3,1.7
		c-11.2,0-17.8-6.2-17.8-16.8c0-9.7,7.1-15.7,16-15.7c8.6,0,15,5.6,15,15.6V486.7z M412.5,480.8h12.8c-0.6-4-2.6-6.3-6.3-6.3
		C415.5,474.5,413.3,476.7,412.5,480.8z"/>
	<path class="st1" d="M470.8,456.8v43h-10v-4c-2.3,3-5.6,4.6-9.6,4.6c-8.4,0-13.7-7-13.7-16.3c0-9.3,5.3-16.2,13.7-16.2
		c4,0,7.3,1.7,9.6,4.5v-15.7H470.8z M460.9,488.5v-8.7c-1.5-2-3.6-3.6-6.3-3.6c-4.3,0-7.2,3.4-7.2,8c0,4.7,3,8.1,7.3,8.1
		C457.4,492.2,459.4,490.6,460.9,488.5z"/>
	<path class="st1" d="M498.5,478.1c-5.5,0-9.3,0.6-11.5,2.6v19.1h-10v-31.3h10v6.8c1.5-3.5,4.5-7.4,11.5-7.4V478.1z"/>
	<path class="st1" d="M501.1,483.9c0-9.2,7.4-15.9,17.1-15.9s17,6.8,17,15.9c0,9.5-7.3,16.6-17,16.6S501.1,493.4,501.1,483.9z
		 M525.5,484c0-4.8-3.1-8.1-7.3-8.1s-7.3,3.3-7.3,8.1c0,5,3.1,8.4,7.3,8.4S525.5,489,525.5,484z"/>
</g>
<g>
	<path class="st1" d="M200.8,536.6v1.6H191v-15h1.7v13.4H200.8z"/>
	<path class="st1" d="M212.6,527.2v10.9H211v-2c-0.8,1.2-2,2.2-3.7,2.2c-2.1,0-3.9-1.5-3.9-4.1v-7h1.7v6.9c0,1.8,1.4,2.7,2.7,2.7
		c1.3,0,2.3-0.8,3.3-2.2v-7.4H212.6z"/>
	<path class="st1" d="M221,532.7l3.9,5.5h-2.1l-2.9-4.4l-2.9,4.4H215l3.9-5.5l-3.9-5.4h2.1l2.9,4.3l2.9-4.3h2.1L221,532.7z"/>
	<path class="st1" d="M236.5,527.2v10.9h-1.7v-2c-0.8,1.2-2,2.2-3.7,2.2c-2.1,0-3.9-1.5-3.9-4.1v-7h1.7v6.9c0,1.8,1.4,2.7,2.7,2.7
		c1.3,0,2.3-0.8,3.3-2.2v-7.4H236.5z"/>
	<path class="st1" d="M246.4,527v1.7c-2.4,0-3.6,0.5-4.6,1.9v7.5h-1.7v-10.9h1.7v2.1C242.7,527.9,244,527,246.4,527z"/>
	<path class="st1" d="M258.4,527.2l-6,14.6h-2l2.2-4.4l-4.8-10.1h1.9l3.8,8.4l3.1-8.4H258.4z"/>
	<path class="st1" d="M282,531.1v7.1h-1.7v-6.9c0-1.7-1-2.7-2.4-2.7c-1.3,0-2.2,0.9-3.3,2.1c0,0.1,0,0.3,0,0.4v7.1H273v-6.9
		c0-1.7-1-2.7-2.4-2.7c-1.3,0-2.2,0.8-3.3,2.4v7.2h-1.7v-10.9h1.7v2c0.8-1.2,1.9-2.2,3.7-2.2c1.7,0,2.9,0.9,3.4,2.4
		c0.9-1.3,2.1-2.4,4-2.4C280.6,527,282,528.6,282,531.1z"/>
	<path class="st1" d="M293.6,531.2v7H292v-1.4c-1,1.2-2.2,1.6-3.3,1.6c-2.4,0-4-1.5-4-3.6c0-2,1.6-3.6,4-3.6c1.2,0,2.3,0.5,3.3,1.5
		v-1.5c0-1.8-1.1-2.7-3-2.7c-0.9,0-1.8,0.2-3.2,0.9v-1.8c1.4-0.4,2.5-0.6,3.4-0.6C292,527,293.6,528.5,293.6,531.2z M292,535.5v-1.3
		c-1-1.3-2.1-1.6-2.9-1.6c-1.6,0-2.7,1-2.7,2.3c0,1.3,1.1,2.3,2.7,2.3C289.9,537.1,291,536.8,292,535.5z"/>
	<path class="st1" d="M296.3,537.4v-1.9c1.6,1,2.6,1.5,3.9,1.5c1.5,0,2.3-0.6,2.3-1.6c0-2.9-6.1-1.2-6.1-5.1c0-1.9,1.6-3.2,4.1-3.2
		c0.8,0,2.3,0.1,3.4,0.6l0,1.9c-1.2-0.8-2.5-1-3.5-1c-1.5,0-2.3,0.6-2.3,1.6c0,2.7,6.2,1,6.2,5.1c0,1.9-1.5,3.2-3.9,3.2
		C299.4,538.4,298,538.2,296.3,537.4z"/>
	<path class="st1" d="M306.3,537.4v-1.9c1.6,1,2.6,1.5,3.9,1.5c1.5,0,2.3-0.6,2.3-1.6c0-2.9-6.1-1.2-6.1-5.1c0-1.9,1.6-3.2,4.1-3.2
		c0.8,0,2.3,0.1,3.4,0.6l0,1.9c-1.2-0.8-2.5-1-3.5-1c-1.5,0-2.3,0.6-2.3,1.6c0,2.7,6.2,1,6.2,5.1c0,1.9-1.5,3.2-3.9,3.2
		C309.4,538.4,308,538.2,306.3,537.4z"/>
	<path class="st1" d="M325.2,531.2v7h-1.7v-1.4c-1,1.2-2.2,1.6-3.3,1.6c-2.4,0-4-1.5-4-3.6c0-2,1.6-3.6,4-3.6c1.2,0,2.3,0.5,3.3,1.5
		v-1.5c0-1.8-1.1-2.7-3-2.7c-0.9,0-1.8,0.2-3.2,0.9v-1.8c1.4-0.4,2.5-0.6,3.4-0.6C323.6,527,325.2,528.5,325.2,531.2z M323.5,535.5
		v-1.3c-1-1.3-2.1-1.6-2.9-1.6c-1.6,0-2.7,1-2.7,2.3c0,1.3,1.1,2.3,2.7,2.3C321.4,537.1,322.5,536.8,323.5,535.5z"/>
	<path class="st1" d="M338.6,527.2v10.1c0,2.6-2.2,4.7-5.5,4.7c-1.3,0-2.5-0.2-4.3-1v-1.8c1.9,1,2.9,1.3,4.3,1.3
		c2.3,0,3.9-1.4,3.9-3.3v-1.5c-0.9,1.2-2.1,1.9-3.9,1.9c-2.9,0-5.1-2.3-5.1-5.3c0-3,2.2-5.3,5.1-5.3c1.7,0,2.9,0.6,3.9,1.8v-1.6
		H338.6z M336.9,534v-3.3c-0.8-1.4-2-2.2-3.5-2.2c-2.1,0-3.8,1.7-3.8,3.8c0,2.2,1.6,3.9,3.8,3.9C334.9,536.2,336.1,535.4,336.9,534z
		"/>
	<path class="st1" d="M351.8,533.1h-8.5c0.2,2.6,1.6,3.8,4.3,3.8c1.1,0,2.2-0.3,3.6-0.9v1.7c-1.4,0.4-2.6,0.6-3.7,0.6
		c-3.8,0-6-2.1-6-5.9c0-3.2,2.1-5.5,5.3-5.5c3.1,0,4.9,2.3,4.9,5.4V533.1z M343.3,531.8h6.8c-0.2-2-1.3-3.4-3.2-3.4
		C344.8,528.4,343.5,529.7,343.3,531.8z"/>
	<path class="st1" d="M361.9,526.7v0.6h3.6v1.4h-3.6v9.6h-1.7v-9.6h-1.7v-1.4h1.7v-0.6c0-2.1,1.7-3.7,3.9-3.7c0.4,0,0.6,0,1.3,0.1
		v1.5c-0.6-0.1-0.9-0.1-1.3-0.1C362.8,524.4,361.9,525.4,361.9,526.7z"/>
	<path class="st1" d="M366.5,532.7c0-3.3,2.5-5.7,5.7-5.7s5.7,2.4,5.7,5.7s-2.5,5.7-5.7,5.7S366.5,536,366.5,532.7z M376.3,532.7
		c0-2.4-1.7-4.2-4-4.2s-4,1.8-4,4.2s1.7,4.2,4,4.2S376.3,535.1,376.3,532.7z"/>
	<path class="st1" d="M387.1,527v1.7c-2.4,0-3.6,0.5-4.6,1.9v7.5h-1.7v-10.9h1.7v2.1C383.4,527.9,384.7,527,387.1,527z"/>
	<path class="st1" d="M404,527.2l-6,14.6h-2l2.2-4.4l-4.8-10.1h1.9l3.8,8.4l3.1-8.4H404z"/>
	<path class="st1" d="M405.2,532.7c0-3.3,2.5-5.7,5.7-5.7s5.7,2.4,5.7,5.7s-2.5,5.7-5.7,5.7S405.2,536,405.2,532.7z M415,532.7
		c0-2.4-1.7-4.2-4-4.2s-4,1.8-4,4.2s1.7,4.2,4,4.2S415,535.1,415,532.7z"/>
	<path class="st1" d="M428.7,527.2v10.9H427v-2c-0.8,1.2-2,2.2-3.7,2.2c-2.1,0-3.9-1.5-3.9-4.1v-7h1.7v6.9c0,1.8,1.4,2.7,2.7,2.7
		c1.3,0,2.3-0.8,3.3-2.2v-7.4H428.7z"/>
	<path class="st1" d="M434.7,537.2c0,0.7-0.5,1.2-1.2,1.2c-0.7,0-1.2-0.5-1.2-1.2c0-0.7,0.5-1.2,1.2-1.2
		C434.2,536,434.7,536.5,434.7,537.2z M434.3,533.6h-1.7v-10.4h1.7V533.6z"/>
</g>
</svg>
